<?xml version="1.0" standalone="no"?>
<!DOCTYPE svg PUBLIC "-//W3C//DTD SVG 20010904//EN"
 "http://www.w3.org/TR/2001/REC-SVG-20010904/DTD/svg10.dtd">
<svg version="1.0" xmlns="http://www.w3.org/2000/svg"
 width="1080.000000pt" height="1080.000000pt" viewBox="0 0 1080.000000 1080.000000"
 preserveAspectRatio="xMidYMid meet">
<metadata>
Created by potrace 1.14, written by Peter Selinger 2001-2017
</metadata>
<g transform="translate(0.000000,1080.000000) scale(0.100000,-0.100000)"
fill="#000000" stroke="none">
<path d="M6210 10680 c0 -5 5 -10 11 -10 5 0 7 5 4 10 -3 6 -8 10 -11 10 -2 0
-4 -4 -4 -10z"/>
<path d="M6269 10683 c-1 -4 -1 -11 0 -15 0 -5 -3 -8 -9 -8 -5 0 -10 6 -10 13
0 9 -2 9 -8 0 -4 -7 -29 -14 -55 -15 -33 -2 -46 -7 -42 -15 4 -11 -14 -18 -38
-14 -4 1 -10 -6 -13 -14 -4 -8 -14 -15 -23 -15 -14 0 -14 -2 -1 -10 13 -8 12
-10 -3 -10 -14 0 -17 -5 -12 -22 7 -23 7 -23 -9 -3 l-15 20 -2 -20 c-1 -11 -1
-24 0 -29 1 -5 -6 -3 -15 5 -12 9 -15 9 -10 2 4 -7 3 -13 -3 -13 -6 0 -8 -7
-5 -15 4 -10 0 -15 -12 -15 -15 0 -16 -2 -5 -9 11 -7 9 -10 -8 -16 -11 -3 -22
-13 -22 -21 -1 -8 -3 -18 -4 -24 -1 -5 -3 -15 -4 -21 0 -5 -6 -7 -13 -3 -8 5
-9 2 -5 -9 4 -10 2 -17 -4 -17 -6 0 -9 -7 -5 -15 5 -13 -4 -19 -25 -17 -3 1
-5 -15 -4 -34 2 -22 -2 -37 -10 -40 -8 -3 -16 -13 -19 -21 -6 -14 -4 -14 11
-2 17 13 17 12 2 -6 -9 -11 -14 -27 -12 -35 4 -12 3 -12 -5 -1 -7 10 -11 10
-17 1 -4 -7 -1 -16 6 -21 10 -6 11 -9 2 -9 -8 0 -13 -13 -13 -31 0 -25 -3 -29
-13 -21 -10 9 -13 5 -12 -16 1 -15 -4 -33 -9 -41 -6 -8 -10 -16 -8 -18 6 -9 1
-23 -7 -18 -6 3 -9 -12 -8 -35 2 -30 -1 -39 -11 -35 -7 2 -10 1 -7 -4 3 -5 1
-12 -5 -16 -5 -3 -10 -11 -10 -18 0 -6 7 -2 16 9 14 18 14 17 2 -6 -7 -14 -13
-36 -14 -50 0 -14 -6 -24 -12 -23 -7 2 -9 -4 -5 -14 4 -10 2 -14 -4 -10 -7 4
-9 -8 -7 -34 2 -26 -1 -42 -9 -45 -12 -4 -19 -42 -20 -121 -1 -17 -5 -29 -9
-27 -5 3 -6 9 -3 14 3 5 2 11 -3 14 -4 2 -9 -21 -10 -53 -3 -66 -9 -101 -18
-110 -4 -3 -4 2 -1 12 4 9 2 17 -3 17 -6 0 -10 -25 -10 -56 0 -41 -3 -53 -12
-48 -9 5 -8 2 1 -10 11 -13 12 -19 2 -29 -10 -9 -11 -8 -6 6 4 9 3 17 -2 17
-5 0 -9 -21 -9 -47 1 -26 -5 -52 -11 -59 -10 -10 -10 -13 0 -17 8 -3 6 -10 -8
-22 -18 -15 -18 -16 -2 -11 12 4 17 2 14 -6 -2 -7 -9 -12 -14 -11 -6 1 -10
-10 -11 -25 0 -71 -3 -92 -10 -89 -4 1 -7 -2 -7 -8 0 -5 4 -9 8 -7 5 1 5 -2 2
-8 -5 -8 -14 -5 -28 7 -11 10 -17 13 -14 7 4 -7 -2 -14 -13 -17 -14 -4 -20 0
-20 11 0 13 -3 12 -16 -4 -11 -13 -14 -14 -11 -3 3 9 -1 16 -9 16 -7 0 -11 -4
-8 -9 8 -13 -10 -10 -25 5 -8 7 -11 7 -8 1 8 -14 -26 -25 -44 -13 -8 4 -19 3
-28 -4 -12 -10 -13 -8 -7 13 4 14 4 20 -1 15 -13 -16 -63 -36 -63 -25 0 6 5
10 12 10 6 0 9 3 5 6 -3 3 -16 -1 -28 -9 -20 -14 -23 -14 -38 2 -9 9 -11 10
-6 2 8 -11 6 -13 -6 -9 -9 4 -22 1 -29 -5 -10 -9 -11 -7 -5 13 3 14 3 20 -2
15 -12 -15 -63 -36 -63 -26 0 5 6 11 13 14 6 3 2 4 -10 4 -12 -1 -20 -4 -17
-8 2 -4 -8 -9 -21 -12 -22 -4 -25 -1 -19 15 5 18 3 17 -17 -3 -22 -22 -24 -22
-27 -6 -4 18 -4 18 -19 0 -11 -13 -13 -14 -10 -3 3 11 -3 16 -22 17 -23 2 -24
1 -6 -7 16 -7 17 -9 3 -9 -9 -1 -23 -4 -32 -7 -11 -4 -16 -1 -16 10 0 16 -2
16 -22 2 -28 -20 -44 -21 -28 -1 7 8 17 12 23 8 6 -3 7 -1 3 6 -6 9 -11 9 -21
1 -7 -6 -21 -8 -31 -4 -14 4 -15 3 -6 -4 11 -7 9 -10 -8 -15 -17 -4 -20 -2
-15 11 5 13 1 12 -16 -4 l-22 -19 7 25 c4 14 4 20 -1 14 -11 -15 -45 -25 -98
-28 -44 -3 -61 8 -27 17 9 3 5 4 -10 4 -15 -1 -25 -4 -22 -8 2 -4 -8 -9 -21
-12 -22 -4 -25 -1 -19 15 5 18 3 17 -17 -3 -22 -22 -24 -22 -27 -6 -4 18 -4
18 -19 0 -11 -14 -13 -14 -10 -2 4 11 -2 15 -23 15 -16 0 -27 -3 -25 -7 3 -4
-7 -9 -20 -12 -22 -4 -25 -1 -19 15 5 18 3 17 -17 -3 -22 -22 -24 -22 -27 -6
-4 18 -4 18 -19 0 -11 -13 -13 -14 -10 -3 3 11 -3 16 -22 17 -23 2 -24 1 -6
-7 16 -7 17 -9 3 -9 -9 -1 -23 -4 -32 -7 -11 -4 -16 -1 -16 10 0 16 -2 16 -22
2 -28 -20 -44 -21 -28 -1 7 8 17 12 23 8 6 -3 7 -1 3 6 -6 9 -11 9 -21 1 -7
-6 -21 -8 -31 -4 -14 4 -15 3 -6 -4 11 -7 9 -10 -8 -15 -17 -4 -20 -2 -15 11
5 13 1 12 -16 -4 l-22 -19 7 25 c4 14 4 20 -1 14 -11 -15 -45 -25 -98 -28 -44
-3 -61 8 -27 17 9 3 5 4 -10 4 -15 -1 -25 -4 -22 -8 2 -4 -8 -9 -21 -12 -22
-4 -25 -1 -19 15 5 18 3 17 -17 -3 -22 -22 -24 -22 -27 -6 -4 18 -4 18 -19 0
-11 -13 -13 -14 -10 -3 3 11 -3 16 -22 17 -23 2 -24 1 -6 -7 16 -7 17 -9 3 -9
-9 -1 -23 -4 -32 -7 -11 -4 -16 -1 -16 10 0 16 -2 16 -22 2 -28 -20 -44 -21
-28 -1 7 8 17 12 23 8 6 -3 7 -1 3 6 -6 9 -11 9 -21 1 -7 -6 -21 -8 -31 -4
-14 4 -15 3 -6 -4 11 -7 9 -10 -8 -15 -17 -4 -20 -2 -15 11 5 13 1 12 -16 -4
l-22 -19 7 25 c4 14 4 20 -1 14 -12 -17 -48 -25 -118 -28 -49 -1 -65 1 -65 12
0 10 -5 10 -22 -2 -28 -20 -44 -21 -28 -1 7 8 17 12 23 8 6 -3 7 -1 3 6 -6 9
-11 9 -21 1 -7 -6 -21 -8 -31 -4 -14 4 -15 3 -6 -4 11 -7 9 -10 -8 -15 -17 -4
-20 -2 -15 11 5 13 1 12 -16 -4 l-22 -19 7 25 c4 14 4 20 -1 13 -19 -27 -121
-35 -149 -12 -10 8 -15 9 -11 3 8 -15 -26 -25 -44 -13 -8 4 -19 3 -28 -4 -12
-10 -13 -8 -7 13 4 14 4 20 -1 15 -13 -16 -63 -36 -63 -25 0 6 5 10 12 10 6 0
9 3 5 6 -3 3 -16 -1 -28 -9 -20 -14 -23 -14 -38 2 -9 9 -11 10 -6 2 8 -11 6
-13 -6 -9 -9 4 -22 1 -29 -5 -10 -9 -11 -7 -5 13 3 14 3 20 -2 15 -12 -15 -63
-36 -63 -26 0 5 6 11 13 14 6 3 2 4 -10 4 -12 -1 -20 -4 -17 -8 2 -4 -8 -9
-21 -12 -22 -4 -25 -1 -19 15 5 18 3 17 -17 -3 -22 -22 -24 -22 -27 -6 -4 18
-4 18 -19 0 -11 -13 -13 -14 -10 -3 3 11 -3 16 -22 17 -23 2 -24 1 -6 -7 16
-7 17 -9 3 -9 -9 -1 -23 -4 -32 -7 -11 -4 -16 -1 -16 10 0 16 -2 16 -22 2 -28
-20 -44 -21 -28 -1 7 8 17 12 23 8 6 -3 7 -1 3 6 -6 9 -11 9 -21 1 -7 -6 -21
-8 -31 -4 -14 4 -15 3 -6 -4 11 -7 9 -10 -8 -15 -17 -4 -20 -2 -15 11 5 13 1
12 -16 -4 l-22 -19 7 25 c4 14 4 20 -1 14 -11 -15 -45 -25 -98 -28 -44 -3 -61
8 -27 17 9 3 5 4 -10 4 -15 -1 -25 -4 -22 -8 2 -4 -8 -9 -21 -12 -22 -4 -25
-1 -19 15 5 18 3 17 -17 -3 -22 -22 -24 -22 -27 -6 -4 18 -4 18 -19 0 -11 -14
-14 -14 -10 -2 3 9 -1 16 -9 16 -7 0 -11 -4 -8 -9 8 -13 -10 -10 -25 5 -8 7
-11 7 -8 1 8 -14 -26 -25 -44 -13 -8 4 -19 3 -28 -4 -12 -10 -13 -8 -7 13 4
14 4 20 -1 15 -13 -16 -63 -36 -63 -25 0 6 5 10 12 10 6 0 9 3 5 6 -3 3 -16
-1 -28 -9 -20 -14 -23 -14 -38 2 -9 9 -11 10 -6 2 8 -11 6 -13 -6 -9 -9 4 -22
1 -29 -5 -10 -9 -11 -7 -5 13 3 14 3 20 -2 13 -4 -6 -22 -14 -38 -18 -17 -4
-38 -9 -47 -12 -12 -3 -18 1 -18 12 0 15 -2 15 -22 1 -28 -20 -44 -21 -28 -1
7 8 17 12 23 8 6 -3 7 -1 3 6 -6 9 -11 9 -21 1 -7 -6 -21 -8 -31 -4 -14 4 -15
3 -6 -4 11 -7 9 -10 -8 -15 -17 -4 -20 -2 -15 11 5 13 1 12 -16 -4 l-22 -19 7
25 c4 14 4 20 -1 14 -12 -17 -48 -25 -118 -28 -43 -1 -65 2 -65 9 0 7 -7 12
-15 12 -8 0 -12 -4 -10 -8 3 -4 -2 -10 -11 -13 -23 -9 -28 -7 -16 7 8 9 4 12
-15 14 -16 0 -21 -2 -14 -7 9 -5 7 -9 -8 -13 -11 -2 -29 2 -41 10 -12 8 -24
12 -27 9 -4 -3 -1 -6 5 -6 7 0 12 -3 12 -8 0 -4 -42 -7 -94 -7 -71 0 -92 -3
-89 -12 3 -7 0 -13 -6 -13 -6 0 -11 5 -11 10 0 6 -4 10 -10 10 -5 0 -7 -6 -5
-12 4 -9 -9 -13 -44 -13 -42 0 -47 -2 -38 -14 9 -11 9 -13 0 -8 -6 4 -14 4
-16 -1 -3 -4 -21 -7 -41 -6 -26 1 -36 -2 -36 -13 0 -8 -3 -12 -7 -10 -12 7
-55 -12 -49 -21 2 -4 -10 -9 -27 -10 -17 -2 -38 -9 -47 -17 -9 -8 -22 -15 -28
-15 -7 0 -12 -6 -12 -14 0 -8 -5 -18 -12 -22 -7 -5 -8 -3 -3 7 5 8 -2 5 -15
-6 -13 -11 -20 -15 -17 -8 4 6 2 15 -4 19 -7 4 -9 3 -6 -3 9 -14 -40 -66 -53
-58 -6 3 -10 -3 -10 -15 0 -12 -4 -19 -8 -16 -5 3 -16 -4 -25 -15 -10 -11 -22
-17 -27 -14 -5 3 -12 -6 -16 -20 -4 -18 -10 -23 -18 -16 -9 7 -12 1 -14 -21
-3 -37 -12 -52 -12 -20 0 12 -4 22 -9 22 -6 0 -8 -9 -6 -21 3 -16 0 -19 -13
-14 -9 3 -13 3 -9 -1 4 -4 -1 -13 -11 -21 -9 -8 -11 -12 -5 -8 8 4 11 1 7 -9
-3 -8 -12 -12 -21 -9 -10 4 -14 0 -11 -13 2 -11 -2 -18 -8 -17 -7 1 -15 -9
-18 -23 -4 -15 -11 -22 -18 -18 -6 4 -8 3 -4 -4 3 -6 2 -13 -4 -17 -6 -4 -8
-11 -5 -16 4 -5 0 -9 -8 -9 -8 0 -17 -8 -21 -17 -3 -10 -10 -25 -15 -33 -5 -8
-12 -28 -16 -43 -3 -15 -10 -25 -15 -22 -6 4 -10 -7 -10 -24 0 -21 -5 -31 -16
-31 -8 0 -12 -5 -9 -10 4 -6 11 -7 17 -4 7 4 8 2 4 -5 -4 -6 -12 -9 -17 -6 -5
3 -7 -8 -5 -24 2 -22 -1 -32 -13 -36 -12 -3 -16 -15 -16 -38 2 -40 -4 -59 -16
-51 -5 3 -9 1 -9 -5 0 -5 8 -12 17 -14 17 -4 17 -5 1 -6 -10 0 -18 -9 -19 -18
-7 -112 -2 -1790 5 -1786 5 4 5 0 0 -8 -11 -19 -12 -1919 0 -1912 5 4 5 0 0
-8 -11 -19 -12 -1919 0 -1912 5 4 6 1 1 -6 -13 -21 -11 -83 3 -97 7 -8 14 -38
15 -68 1 -39 5 -52 15 -49 7 3 12 2 11 -3 -1 -5 0 -13 1 -19 1 -5 3 -14 5 -20
1 -5 3 -18 3 -28 1 -10 6 -15 12 -12 6 4 10 -8 10 -29 0 -25 4 -36 15 -36 14
0 18 -11 18 -52 0 -10 5 -14 13 -11 10 4 14 -4 15 -23 0 -25 2 -26 8 -9 7 16
9 14 15 -16 4 -21 17 -44 31 -55 17 -13 21 -20 12 -26 -8 -5 -6 -8 7 -8 12 0
16 -5 12 -15 -4 -10 1 -15 15 -15 11 0 17 -5 14 -10 -3 -6 1 -13 9 -16 9 -3
16 -12 16 -20 0 -8 5 -14 11 -14 5 0 7 5 3 12 -4 7 -3 8 4 4 7 -4 12 -16 12
-26 0 -10 5 -22 12 -26 7 -4 8 -3 4 4 -4 7 -2 12 3 12 6 0 11 -9 11 -21 0 -11
4 -18 9 -14 5 3 12 -4 16 -15 4 -11 11 -18 16 -15 5 4 12 -1 15 -9 3 -9 13
-16 21 -16 8 0 11 -5 8 -10 -4 -6 7 -13 24 -16 17 -4 31 -11 31 -16 0 -5 -5
-6 -12 -2 -7 4 -8 3 -4 -4 4 -7 15 -12 26 -12 10 0 21 -7 24 -16 3 -9 12 -14
20 -11 7 3 21 -4 30 -14 9 -11 21 -17 26 -14 6 3 10 -1 10 -9 0 -11 9 -16 30
-16 17 0 30 -5 30 -11 0 -5 5 -7 12 -3 7 5 9 2 5 -9 -4 -12 0 -14 19 -11 19 3
24 1 18 -8 -5 -8 -1 -7 11 2 17 14 18 13 12 -3 -6 -15 0 -17 43 -17 27 0 52
-5 56 -12 5 -7 3 -8 -6 -3 -8 5 -11 4 -7 -2 6 -9 46 -14 109 -14 10 0 21 -5
24 -11 5 -7 2 -8 -7 -3 -8 5 -11 4 -7 0 5 -5 20 -10 34 -11 22 -2 24 -1 12 14
-11 15 -10 15 8 -1 24 -20 45 -22 63 -5 9 8 12 9 7 1 -4 -8 307 -11 1271 -12
703 0 1301 -1 1330 -1 49 0 52 -1 50 -25 -1 -14 -6 -25 -12 -24 -15 1 -23 -35
-11 -50 8 -11 8 -13 -1 -8 -15 10 -47 -37 -38 -55 4 -7 -1 -4 -10 7 -12 14
-16 16 -15 5 5 -33 -1 -50 -15 -50 -9 0 -15 -9 -15 -24 0 -14 -5 -28 -12 -32
-8 -5 -9 -2 -5 10 4 11 3 15 -4 10 -6 -3 -9 -15 -6 -25 3 -11 -1 -20 -12 -24
-9 -3 -17 -15 -18 -27 -1 -11 -6 -24 -11 -27 -5 -3 -11 -14 -15 -24 -4 -10
-12 -16 -19 -12 -7 4 -4 -1 7 -10 l20 -17 -20 4 c-14 2 -19 -2 -17 -15 2 -10
-3 -16 -10 -15 -7 2 -12 -5 -12 -14 1 -11 -5 -18 -15 -18 -14 0 -14 -2 -1 -10
13 -8 12 -10 -3 -10 -10 0 -16 -4 -12 -9 3 -5 1 -12 -4 -16 -6 -3 -7 -13 -4
-23 5 -14 3 -13 -9 2 -15 19 -15 19 -15 -8 0 -15 -8 -33 -18 -40 -10 -7 -15
-17 -12 -22 3 -6 1 -16 -5 -24 -8 -12 -9 -12 -4 3 3 9 1 17 -4 17 -4 0 -11
-14 -15 -30 -4 -17 -10 -30 -13 -30 -4 0 -13 -9 -20 -21 -8 -12 -9 -18 -3 -15
5 4 13 1 17 -6 4 -7 4 -10 -1 -6 -4 4 -24 -1 -44 -12 -32 -18 -60 -20 -271
-22 -186 -2 -234 -6 -232 -16 1 -7 -3 -12 -10 -11 -7 1 -26 1 -43 0 -23 -1
-27 -3 -15 -11 14 -9 7 -14 -13 -11 -4 1 -10 -6 -14 -15 -5 -13 -7 -13 -14 -2
-7 10 -9 9 -10 -4 -3 -32 -4 -36 -13 -45 -5 -4 -6 -3 -2 4 3 6 2 14 -4 18 -10
6 -15 -15 -10 -44 1 -13 -1 -13 -14 -2 -14 12 -16 10 -16 -17 0 -19 -7 -35
-17 -41 -10 -6 -14 -11 -9 -11 4 0 1 -12 -9 -26 -9 -15 -12 -23 -6 -20 7 4 11
-1 11 -13 0 -12 -5 -21 -11 -21 -5 0 -7 -6 -3 -12 5 -7 9 -32 9 -55 1 -24 4
-46 8 -49 3 -3 3 -17 1 -30 -3 -17 0 -24 11 -24 10 0 15 -10 15 -30 0 -17 3
-29 8 -29 18 3 33 -2 28 -10 -3 -4 8 -19 24 -31 16 -12 27 -27 24 -31 -5 -8
19 -13 54 -12 7 1 11 -5 8 -12 -6 -16 -287 -15 2318 -15 1570 -1 2172 2 2180
10 8 8 6 9 -6 5 -10 -4 -18 -3 -18 2 0 8 14 12 57 15 7 1 10 5 7 10 -3 4 0 8
6 8 6 0 8 4 5 10 -3 6 1 7 9 4 11 -4 16 0 16 11 0 11 5 15 15 11 9 -3 15 0 15
9 0 8 8 19 18 25 15 10 15 11 -3 6 -19 -6 -19 -5 -2 8 9 7 17 18 17 25 0 6 7
11 15 11 8 0 15 5 15 11 0 5 -4 8 -9 4 -5 -3 -13 -1 -16 5 -4 6 -1 9 6 8 6 -2
15 9 20 24 5 19 4 28 -4 28 -9 0 -8 3 0 8 7 4 11 18 9 29 -4 17 -1 21 12 17 9
-3 7 1 -6 8 -12 8 -20 17 -16 21 11 10 13 56 4 62 -5 3 -7 12 -3 20 3 9 -1 15
-11 15 -11 0 -16 9 -16 30 0 17 -4 29 -9 28 -5 -2 -9 1 -9 6 0 5 -17 20 -39
34 -21 13 -30 21 -20 18 12 -4 17 -2 15 6 -3 7 -17 14 -32 16 -22 3 -25 6 -16
17 10 12 8 13 -9 10 -11 -2 -23 0 -26 5 -3 4 -16 7 -30 5 -19 -2 -23 1 -15 10
8 10 2 13 -27 13 -21 1 -49 2 -63 2 -14 1 -30 1 -35 0 -6 -2 -85 -2 -177 -1
-112 1 -168 5 -168 12 0 15 -26 39 -35 31 -3 -4 -4 5 0 19 4 16 2 30 -4 33 -7
5 -9 0 -5 -11 5 -17 5 -17 -6 0 -6 9 -8 22 -4 29 5 8 2 9 -9 5 -10 -3 -17 -2
-17 3 0 6 8 10 18 11 12 0 13 2 3 6 -25 10 -53 45 -55 68 -1 15 -5 20 -11 15
-7 -6 -12 1 -13 18 -1 14 -7 31 -14 37 -8 7 -9 5 -5 -8 4 -11 3 -16 -3 -12 -6
3 -10 19 -10 36 0 17 -5 28 -12 27 -7 -2 -15 11 -18 27 -5 29 -6 29 -18 10
-12 -19 -13 -19 -6 4 4 14 2 21 -4 17 -5 -3 -9 2 -8 12 0 9 -4 16 -11 15 -6
-1 -14 4 -17 13 -3 8 -2 13 3 10 5 -4 7 3 4 14 -3 11 -11 20 -19 20 -7 0 -11
8 -9 19 3 19 -19 37 -39 32 -5 -1 -4 5 4 13 10 13 10 16 -3 16 -8 0 -17 13
-20 30 -4 17 -13 30 -21 30 -10 0 -13 6 -9 17 5 12 2 15 -10 10 -9 -3 -17 -2
-17 3 0 5 8 11 18 13 16 4 16 5 0 6 -16 1 -24 19 -19 45 1 5 -5 4 -13 -3 -12
-11 -15 -8 -14 18 l1 31 71 0 c39 1 648 1 1354 1 967 1 1282 4 1282 12 0 7 4
6 10 -3 9 -13 10 -13 10 0 0 9 3 11 8 5 9 -12 63 -15 55 -2 -3 4 -11 6 -19 3
-7 -3 -16 -1 -18 3 -9 14 5 20 29 11 13 -5 26 -6 29 -3 3 4 27 7 53 7 33 1 47
5 45 14 -2 10 35 17 54 10 4 -2 11 7 15 20 7 18 12 21 27 13 10 -5 24 -6 32
-1 8 5 18 6 22 4 5 -3 7 0 6 8 -2 7 7 14 20 16 13 2 26 10 28 17 3 8 12 11 19
9 7 -3 23 4 35 16 11 11 25 18 29 15 5 -2 11 4 14 15 3 13 11 18 26 15 18 -3
21 1 22 28 1 18 3 24 6 15 5 -22 23 -24 23 -3 0 8 7 15 15 15 8 0 15 7 15 15
0 8 6 15 14 15 8 0 17 8 20 17 6 15 8 15 16 3 7 -11 10 -8 10 12 0 19 4 26 14
22 8 -3 16 3 19 16 4 14 10 19 18 14 9 -5 10 -2 6 9 -5 13 -1 17 14 17 15 0
19 5 15 15 -3 8 -1 15 5 15 6 0 7 4 4 10 -4 6 1 7 11 3 12 -4 15 -3 10 5 -4 7
-1 12 9 12 9 0 13 5 10 10 -4 6 -11 7 -17 4 -7 -4 -8 -2 -4 5 4 6 12 9 17 5 6
-3 13 3 16 15 3 12 9 21 14 21 5 0 9 9 9 20 0 14 5 18 18 13 15 -6 16 -5 2 12
-9 11 -10 16 -2 11 7 -4 12 -2 12 7 0 8 7 17 15 21 8 3 15 16 15 30 0 13 5 26
12 28 6 2 12 15 13 29 1 13 8 24 15 24 7 0 15 7 17 15 4 13 3 13 -6 0 -9 -13
-11 -13 -11 3 0 9 5 17 11 17 5 0 7 5 4 10 -3 6 -1 10 5 10 6 0 8 5 5 10 -4 6
-11 7 -17 4 -7 -4 -8 -2 -4 4 4 7 14 12 22 12 9 0 14 11 14 36 0 23 4 33 11
28 8 -4 8 -1 1 12 -11 22 -5 47 10 38 6 -4 8 1 3 15 -3 11 -3 21 2 21 4 0 8
56 8 125 0 89 3 124 11 121 7 -3 6 7 -3 25 -14 28 -14 32 3 45 11 9 14 13 8
10 -7 -3 -14 5 -17 20 -3 17 -1 24 8 21 6 -3 12 1 12 9 0 7 -4 11 -8 9 -4 -3
-10 2 -13 11 -4 11 -2 15 8 11 11 -5 11 0 -1 24 -14 28 -14 32 3 45 11 9 14
13 8 10 -7 -3 -14 5 -17 20 -3 17 0 24 7 21 7 -3 12 5 12 18 0 13 -3 22 -7 19
-4 -2 -9 7 -11 21 -4 17 -1 25 8 25 17 0 18 12 3 27 -16 16 -19 95 -3 89 8 -3
7 5 -3 25 -14 28 -14 32 3 45 11 9 14 13 8 10 -7 -3 -14 5 -17 20 -3 17 0 24
7 21 7 -3 12 5 12 18 0 13 -3 22 -7 19 -4 -2 -9 7 -11 21 -4 17 -1 25 8 25 17
0 18 12 3 27 -16 16 -19 95 -3 89 8 -3 7 5 -3 25 -14 28 -14 32 3 45 11 9 14
13 8 10 -7 -3 -14 5 -17 20 -3 17 0 24 7 21 7 -3 12 5 12 18 0 13 -3 22 -7 19
-4 -2 -9 7 -11 21 -4 17 -1 25 8 25 17 0 18 12 3 27 -16 16 -19 95 -3 89 8 -3
7 5 -3 25 -14 28 -14 32 3 45 11 9 14 13 8 10 -7 -3 -14 5 -17 20 -3 17 0 24
7 21 7 -3 12 5 12 18 0 13 -3 22 -7 19 -4 -2 -9 7 -11 21 -4 17 -1 25 8 25 17
0 18 12 3 27 -16 16 -19 95 -3 89 8 -3 7 5 -3 25 -14 28 -14 32 3 45 11 9 14
13 8 10 -7 -3 -14 5 -17 20 -3 17 0 24 7 21 7 -3 12 5 12 18 0 13 -3 22 -7 19
-4 -2 -9 7 -11 21 -4 17 -1 25 8 25 17 0 18 12 3 27 -16 16 -19 95 -3 89 8 -3
7 5 -3 25 -14 28 -14 32 3 45 11 9 14 13 8 10 -7 -3 -14 5 -17 20 -3 17 0 24
7 21 7 -3 12 5 12 18 0 13 -3 22 -7 19 -4 -2 -9 7 -11 21 -4 17 -1 25 8 25 17
0 18 12 3 27 -16 16 -19 95 -3 89 8 -3 7 5 -3 25 -14 28 -14 32 3 45 11 9 14
13 8 10 -7 -3 -14 5 -17 20 -3 17 0 24 7 21 7 -3 12 5 12 18 0 13 -3 22 -7 19
-4 -2 -9 7 -11 21 -4 17 -1 25 8 25 17 0 18 12 3 27 -16 16 -19 95 -3 89 8 -3
7 5 -3 25 -14 28 -14 32 3 45 11 9 14 13 8 10 -7 -3 -14 5 -17 20 -3 17 0 24
7 21 7 -3 12 5 12 18 0 13 -3 22 -7 19 -4 -2 -9 7 -11 21 -4 17 -1 25 8 25 17
0 18 12 3 27 -16 16 -19 95 -3 89 8 -3 7 5 -3 25 -14 28 -14 32 3 45 11 9 14
13 8 10 -7 -3 -14 5 -17 20 -3 17 0 24 7 21 7 -3 12 5 12 18 0 13 -3 22 -7 19
-4 -2 -9 7 -11 21 -4 17 -1 25 8 25 17 0 18 12 3 27 -16 16 -19 95 -3 89 8 -3
7 5 -3 25 -14 28 -14 32 3 45 11 9 14 13 8 10 -7 -3 -14 5 -17 20 -3 17 0 24
7 21 7 -3 12 5 12 18 0 13 -3 22 -7 19 -4 -2 -9 7 -11 21 -4 17 -1 25 8 25 17
0 18 12 3 27 -16 16 -19 95 -3 89 8 -3 7 5 -3 25 -14 28 -14 32 3 45 11 9 14
13 8 10 -7 -3 -14 5 -17 20 -3 17 0 24 7 21 7 -3 12 5 12 18 0 13 -3 22 -7 19
-4 -2 -9 7 -11 21 -4 17 -1 25 8 25 17 0 18 12 3 27 -16 16 -19 95 -3 89 8 -3
7 5 -3 25 -14 28 -14 32 3 45 11 9 14 13 8 10 -7 -3 -14 5 -17 20 -3 17 0 24
7 21 7 -3 12 5 12 18 0 13 -3 22 -7 19 -4 -2 -9 7 -11 21 -4 17 -1 25 8 25 17
0 18 12 3 27 -16 16 -19 95 -3 89 8 -3 7 5 -3 25 -14 28 -14 32 3 45 11 9 14
13 8 10 -7 -3 -14 5 -17 20 -3 17 0 24 7 21 7 -3 12 5 12 18 0 13 -3 22 -7 19
-4 -2 -9 7 -11 21 -4 17 -1 25 8 25 17 0 18 12 3 27 -16 16 -19 95 -3 89 8 -3
7 5 -3 25 -14 28 -14 32 3 45 11 9 14 13 8 10 -7 -3 -14 5 -17 20 -3 17 0 24
7 21 7 -3 12 5 12 18 0 13 -3 22 -7 19 -4 -2 -9 7 -11 21 -4 17 -1 25 8 25 18
0 18 5 -2 35 -9 14 -12 25 -6 25 6 0 13 -6 15 -12 3 -8 6 -5 6 5 1 14 6 17 21
12 11 -3 20 -2 20 4 0 5 -14 8 -32 6 -29 -4 -30 -3 -12 9 14 11 21 11 26 3 4
-7 8 -8 8 -3 0 5 7 2 16 -5 22 -18 61 -22 70 -8 5 8 3 9 -6 4 -9 -5 -11 -4 -6
4 4 6 15 10 24 9 11 -2 16 3 16 15 -1 9 2 17 6 17 5 0 11 -8 13 -17 5 -18 5
-15 11 60 1 16 -2 31 -7 34 -4 2 -3 11 3 18 8 10 6 15 -10 20 -11 3 -18 11
-15 16 5 8 -32 14 -57 10 -5 0 -8 5 -8 12 0 8 -4 7 -10 -3 -8 -13 -10 -12 -10
3 0 14 -6 16 -30 12 -19 -3 -30 -1 -30 6 0 6 -6 9 -13 6 -8 -3 -14 1 -14 9 0
8 6 14 14 14 16 0 17 12 2 27 -6 6 -12 30 -13 52 -2 33 1 40 12 36 11 -4 12
-2 4 8 -6 7 -13 25 -16 41 -4 21 -2 26 10 22 7 -3 14 -1 14 4 0 6 -8 10 -17
11 -11 0 -13 3 -5 6 6 2 10 9 6 14 -3 5 8 9 25 9 16 0 37 7 45 16 15 14 20 11
17 -8 0 -4 6 -5 15 -1 13 5 13 7 2 14 -9 6 -4 9 15 9 38 0 70 18 63 36 -3 8
-2 14 2 14 4 0 7 20 7 45 0 29 -4 45 -12 45 -7 0 -13 7 -13 15 0 14 -11 19
-37 16 -7 -1 -10 4 -8 11 4 10 -7 13 -44 13 -27 0 -47 -3 -44 -7 2 -5 19 -6
36 -3 20 3 27 2 19 -3 -15 -10 -72 -10 -87 0 -6 3 -10 47 -10 97 0 83 -2 91
-19 91 -20 0 -20 0 0 15 12 10 14 14 4 13 -10 -2 -14 6 -14 30 0 17 -3 32 -8
32 -4 0 -4 7 -1 17 4 11 3 14 -5 9 -8 -5 -12 3 -13 26 -1 18 -1 37 0 41 1 5
-7 11 -17 14 -13 3 -17 13 -16 32 1 16 -3 35 -8 42 -8 11 -9 10 -4 -4 3 -11 2
-16 -4 -12 -6 3 -10 14 -10 23 0 9 -7 26 -15 36 -8 11 -15 28 -15 38 0 10 -7
18 -15 18 -8 0 -15 7 -15 15 0 8 -4 15 -10 15 -5 0 -10 5 -10 11 0 5 5 7 12 3
7 -4 8 -3 4 4 -4 7 -14 12 -21 12 -9 0 -12 6 -8 15 3 10 0 15 -8 13 -9 -2 -13
4 -11 16 3 14 -1 17 -12 13 -15 -6 -20 3 -17 31 2 11 -2 11 -21 1 -20 -11 -21
-10 -11 3 10 12 10 18 -3 34 -8 10 -13 13 -9 7 3 -7 1 -13 -4 -13 -6 0 -11 7
-11 16 0 8 -4 12 -10 9 -5 -3 -10 -2 -10 4 0 5 3 11 8 14 4 2 2 2 -5 1 -7 -2
-15 1 -18 7 -4 5 -11 6 -17 3 -7 -4 -8 -2 -4 5 4 6 12 8 18 5 7 -4 8 -2 4 4
-4 7 -16 12 -26 12 -10 0 -22 4 -25 10 -4 6 1 7 12 4 15 -6 15 -4 -2 9 -15 11
-22 12 -27 4 -8 -12 -9 -9 -12 16 0 6 -8 12 -16 12 -8 1 -14 6 -13 13 3 10
-15 16 -38 14 -13 -2 -50 46 -52 66 0 12 -6 18 -14 15 -10 -4 -13 10 -14 53
-1 33 -1 63 0 67 1 5 -3 6 -8 3 -5 -4 -8 -16 -6 -28 3 -11 1 -17 -3 -14 -4 4
-8 33 -9 64 -2 76 -2 74 -13 67 -5 -3 -11 0 -11 7 -4 33 -7 75 -8 95 -1 12 -7
28 -14 35 -7 7 -13 34 -13 60 1 25 -1 46 -4 46 -3 0 -12 0 -20 1 -13 1 -13 2
0 11 8 5 10 10 4 10 -7 0 -11 15 -10 39 1 22 -1 38 -6 35 -5 -3 -5 -11 -2 -17
4 -7 3 -8 -2 -4 -10 10 -11 14 -13 58 -1 21 -5 28 -13 23 -9 -5 -9 -2 1 9 12
15 11 17 -4 17 -12 0 -15 5 -11 16 3 9 3 21 -1 27 -4 7 -8 23 -9 37 -2 42 -4
46 -13 32 -5 -8 -9 8 -10 40 -2 29 -3 58 -4 65 0 7 -4 10 -9 7 -16 -10 -28 7
-18 26 7 13 6 22 -3 32 -8 7 -12 19 -9 27 3 8 0 11 -6 7 -7 -4 -9 6 -8 26 4
40 -3 60 -16 52 -6 -4 -5 -10 3 -16 11 -8 11 -9 -1 -5 -10 2 -15 16 -14 45 1
35 -2 42 -18 42 -11 0 -17 4 -13 10 3 5 13 7 23 4 9 -2 7 1 -6 7 -12 7 -22 17
-21 23 1 6 1 22 0 36 -1 21 -3 22 -12 10 -9 -12 -10 -11 -6 8 3 12 -1 29 -10
37 -9 9 -10 15 -3 15 6 0 8 5 5 10 -4 6 -11 8 -16 5 -9 -6 -13 14 -10 48 1 9
-4 17 -13 17 -15 0 -21 22 -19 68 1 7 -5 11 -12 8 -7 -2 -16 2 -19 10 -3 8 0
14 6 14 7 0 3 7 -8 16 -10 8 -13 12 -5 8 9 -4 12 -2 9 7 -3 8 -11 13 -18 11
-8 -2 -11 5 -8 22 4 18 0 26 -15 30 -14 3 -18 11 -14 25 3 14 -1 26 -14 34
-10 8 -16 17 -11 22 4 4 -1 5 -11 2 -10 -4 -16 -3 -12 2 3 5 -2 17 -12 26 -14
14 -14 18 -2 27 11 8 10 9 -3 4 -10 -3 -18 -1 -18 4 0 5 -8 7 -17 3 -15 -5
-15 -3 2 11 17 15 17 17 3 12 -12 -3 -18 0 -18 9 0 13 -7 16 -35 15 -9 -1 -33
25 -30 30 2 4 -12 7 -31 8 -26 2 -34 -1 -28 -9 5 -9 3 -9 -7 -3 -20 13 -90 14
-82 1 4 -6 1 -7 -8 -1 -18 11 -59 13 -59 3 0 -4 6 -10 13 -12 6 -3 -3 -6 -21
-6 -18 -1 -31 -5 -27 -10 3 -5 1 -12 -5 -16 -5 -3 -10 -1 -10 6 0 6 -11 0 -25
-15 -15 -16 -22 -33 -18 -44 5 -14 3 -13 -10 3 -16 20 -16 20 -17 -1 0 -25
-38 -77 -50 -69 -4 3 -7 -9 -6 -26 2 -25 -1 -30 -16 -26 -15 4 -18 1 -13 -14
4 -11 2 -19 -6 -19 -8 0 -8 -4 1 -15 11 -13 10 -14 -4 -9 -14 6 -21 -5 -17
-28 0 -5 -3 -8 -8 -8 -11 0 -26 -39 -22 -59 1 -8 -2 -10 -11 -5 -10 6 -10 4 1
-9 8 -10 11 -20 7 -24 -3 -3 -6 -1 -6 6 0 7 -4 10 -9 7 -4 -3 -9 -20 -9 -38 0
-50 -1 -51 -18 -38 -8 8 -14 9 -13 4 1 -5 1 -26 0 -47 -1 -28 -4 -36 -13 -31
-9 5 -8 2 1 -9 8 -10 11 -20 7 -24 -3 -3 -6 0 -6 8 0 11 -2 11 -10 -1 -5 -8
-10 -26 -10 -40 0 -15 -6 -32 -12 -39 -11 -11 -10 -12 1 -6 9 5 12 3 9 -6 -3
-8 -11 -13 -18 -11 -10 2 -10 -1 1 -14 9 -12 9 -15 2 -10 -7 4 -13 3 -13 -1 0
-5 6 -15 13 -22 10 -11 10 -13 0 -7 -9 5 -13 -2 -13 -23 0 -16 -6 -31 -12 -33
-11 -4 -15 -32 -20 -135 -1 -18 -5 -30 -9 -27 -5 2 -6 12 -3 22 5 14 4 14 -4
3 -6 -8 -9 -23 -7 -33 2 -10 -1 -18 -7 -18 -5 0 -7 -8 -4 -17 5 -16 4 -16 -8
1 -11 13 -20 16 -33 10 -26 -11 -53 -13 -53 -3 0 5 -9 9 -21 9 -11 0 -18 -4
-14 -9 3 -5 1 -13 -5 -16 -6 -4 -9 -1 -8 6 2 8 -10 14 -32 15 -26 2 -30 1 -15
-5 11 -5 24 -6 29 -3 5 3 6 0 3 -6 -8 -11 -49 -4 -58 11 -10 14 -42 0 -33 -14
4 -8 3 -9 -5 -5 -6 4 -9 11 -6 16 3 4 -12 8 -33 8 -27 0 -32 -2 -17 -8 11 -4
24 -5 29 -2 5 3 6 0 3 -6 -8 -11 -49 -4 -58 11 -10 14 -42 0 -33 -14 4 -8 3
-9 -5 -5 -6 4 -9 11 -6 16 2 4 -13 8 -35 8 -22 1 -38 -3 -35 -8 3 -5 1 -12 -5
-15 -6 -4 -9 -1 -8 6 2 8 -10 14 -32 15 -26 2 -30 1 -15 -5 11 -5 24 -6 29 -3
5 3 6 0 3 -6 -8 -11 -49 -4 -58 11 -10 14 -42 0 -33 -14 4 -8 3 -9 -5 -5 -6 4
-9 11 -6 16 3 4 -12 8 -33 8 -27 0 -32 -2 -17 -8 11 -4 24 -5 29 -2 5 3 6 0 3
-6 -8 -11 -49 -4 -58 11 -10 14 -42 0 -33 -14 4 -8 3 -9 -5 -5 -6 4 -9 12 -6
17 4 5 -1 9 -9 9 -9 0 -15 -3 -14 -7 4 -10 -5 -13 -33 -13 -11 0 -18 3 -16 8
3 4 -6 8 -20 9 -19 1 -22 -1 -12 -8 9 -6 10 -9 2 -9 -7 0 -17 8 -23 18 -11 16
-11 16 -6 0 3 -12 0 -18 -10 -18 -8 0 -13 3 -11 8 3 4 -6 8 -20 9 -19 1 -22
-1 -12 -8 10 -6 8 -8 -8 -6 -12 0 -19 5 -17 9 3 4 -2 8 -11 8 -9 0 -14 -4 -10
-9 3 -5 1 -13 -5 -16 -6 -4 -9 -1 -8 6 2 8 -10 14 -32 15 -26 2 -30 1 -15 -5
11 -5 24 -6 29 -3 5 3 6 0 3 -6 -8 -11 -49 -4 -58 11 -10 14 -42 0 -33 -14 4
-8 3 -9 -5 -5 -6 4 -9 11 -6 16 3 4 -12 8 -33 8 -27 0 -32 -2 -17 -8 11 -4 24
-5 29 -2 5 3 6 0 3 -6 -8 -11 -49 -4 -58 11 -10 14 -42 0 -33 -14 4 -8 3 -9
-5 -5 -6 4 -9 12 -6 17 4 5 -1 9 -9 9 -9 0 -15 -3 -13 -8 3 -9 -6 -12 -34 -12
-11 0 -18 3 -16 8 3 4 -6 8 -20 9 -19 1 -22 -1 -12 -8 9 -6 10 -9 2 -9 -7 0
-17 8 -23 18 -11 16 -11 16 -6 0 3 -12 0 -18 -10 -18 -8 0 -13 3 -10 8 2 4
-13 7 -34 7 -21 0 -36 -3 -34 -7 2 -4 -4 -6 -15 -5 -15 1 -17 5 -10 13 8 9 5
11 -10 7 -13 -3 -18 -11 -15 -21 5 -15 4 -15 -5 -1 -6 9 -25 16 -43 16 -26 1
-29 -1 -13 -7 11 -4 24 -5 29 -2 5 3 6 0 3 -5 -8 -12 -57 -5 -57 8 0 5 -8 9
-17 9 -15 0 -16 -2 -3 -10 13 -8 12 -10 -2 -10 -10 0 -18 6 -18 13 0 9 -2 9
-9 -1 -7 -11 -9 -10 -15 3 -3 9 -10 14 -14 11 -5 -3 -8 15 -8 40 1 29 -3 43
-11 40 -19 -8 -23 6 -5 20 16 13 16 13 -2 14 -13 0 -17 5 -13 20 3 11 1 20 -3
20 -4 0 -6 9 -3 20 4 13 0 20 -9 20 -8 0 -15 7 -15 15 0 12 3 12 16 3 14 -11
14 -10 0 7 -9 11 -15 30 -14 42 1 12 -2 20 -7 17 -4 -3 -8 0 -8 5 0 6 5 11 12
11 6 0 8 3 5 6 -4 4 -13 2 -20 -4 -11 -9 -13 -5 -12 24 1 19 -4 41 -11 49 -7
7 -14 29 -16 49 -1 22 -7 36 -15 36 -8 0 -13 12 -13 30 0 20 -5 30 -15 30 -8
0 -15 5 -15 11 0 5 4 8 9 4 5 -3 13 0 17 6 5 8 3 9 -5 5 -8 -5 -14 0 -18 13
-3 12 -9 21 -14 21 -4 0 -11 21 -15 46 -4 31 -9 42 -15 33 -7 -11 -9 -11 -10
-1 -1 6 -3 17 -4 22 -1 6 -3 17 -4 26 0 8 -5 12 -11 9 -5 -3 -10 0 -10 8 0 8
-10 19 -22 26 -13 6 -15 9 -6 7 12 -4 15 -1 11 10 -3 7 -9 14 -15 14 -5 0 -6
5 -3 10 3 6 -1 10 -9 10 -9 0 -16 6 -16 14 0 8 -7 17 -16 20 -8 3 -12 10 -9
16 6 9 -8 14 -27 11 -5 0 -8 8 -8 19 0 13 -5 18 -15 14 -11 -5 -13 -2 -9 10 5
12 0 16 -17 17 -13 1 -28 1 -33 0 -5 -1 -3 6 5 15 12 15 12 17 -1 12 -8 -3
-25 -1 -37 3 -15 5 -23 5 -23 -2 0 -6 -5 -7 -10 -4 -6 4 -8 10 -5 15 3 5 1 11
-5 15 -5 3 -11 3 -11 -2z m2981 -183 c0 -5 -2 -10 -4 -10 -3 0 -8 5 -11 10 -3
6 -1 10 4 10 6 0 11 -4 11 -10z m-760 -614 c0 -3 -4 -8 -10 -11 -5 -3 -10 -1
-10 4 0 6 5 11 10 11 6 0 10 -2 10 -4z m-466 -198 c-3 -4 -11 -5 -19 -1 -21 7
-19 12 4 10 11 0 18 -5 15 -9z m-3534 -622 c0 -3 -4 -8 -10 -11 -5 -3 -10 -1
-10 4 0 6 5 11 10 11 6 0 10 -2 10 -4z m-3580 -146 c0 -5 -5 -10 -11 -10 -5 0
-7 5 -4 10 3 6 8 10 11 10 2 0 4 -4 4 -10z m-460 -460 c0 -5 -5 -10 -11 -10
-5 0 -7 5 -4 10 3 6 8 10 11 10 2 0 4 -4 4 -10z m9950 -996 c0 -8 -19 -13 -24
-6 -3 5 1 9 9 9 8 0 15 -2 15 -3z m-10073 -5049 c0 -8 -4 -12 -9 -9 -5 3 -6
10 -3 15 9 13 12 11 12 -6z m9443 -775 c0 -5 -5 -10 -11 -10 -5 0 -7 5 -4 10
3 6 8 10 11 10 2 0 4 -4 4 -10z m-120 -60 c0 -5 -5 -10 -11 -10 -5 0 -7 5 -4
10 3 6 8 10 11 10 2 0 4 -4 4 -10z m-145 -60 c3 -5 1 -10 -4 -10 -6 0 -11 5
-11 10 0 6 2 10 4 10 3 0 8 -4 11 -10z m-5898 -786 c-3 -3 -12 -4 -19 -1 -8 3
-5 6 6 6 11 1 17 -2 13 -5z m-672 -494 c3 -5 1 -10 -4 -10 -6 0 -11 5 -11 10
0 6 2 10 4 10 3 0 8 -4 11 -10z"/>
<path d="M8725 10559 c-4 -6 -5 -12 -2 -15 2 -3 7 2 10 11 7 17 1 20 -8 4z"/>
<path d="M7190 9711 c0 -5 7 -12 16 -15 14 -5 15 -4 4 9 -14 17 -20 19 -20 6z"/>
<path d="M7670 9711 c0 -5 7 -12 16 -15 14 -5 15 -4 4 9 -14 17 -20 19 -20 6z"/>
<path d="M8347 9709 c7 -7 15 -10 18 -7 3 3 -2 9 -12 12 -14 6 -15 5 -6 -5z"/>
<path d="M1634 9078 c-4 -7 -4 -10 1 -6 4 4 15 2 24 -5 14 -11 14 -10 2 6 -16
20 -18 21 -27 5z"/>
<path d="M2170 9081 c0 -6 4 -13 10 -16 6 -3 7 1 4 9 -7 18 -14 21 -14 7z"/>
<path d="M2434 9078 c-4 -7 -4 -10 1 -6 4 4 15 2 24 -5 14 -11 14 -10 2 6 -16
20 -18 21 -27 5z"/>
<path d="M3130 9081 c0 -6 4 -13 10 -16 6 -3 7 1 4 9 -7 18 -14 21 -14 7z"/>
<path d="M3234 9078 c-4 -7 -4 -10 1 -6 4 4 15 2 24 -5 14 -11 14 -10 2 6 -16
20 -18 21 -27 5z"/>
<path d="M3554 9078 c-4 -7 -4 -10 1 -6 4 4 15 2 24 -5 14 -11 14 -10 2 6 -16
20 -18 21 -27 5z"/>
<path d="M4034 9078 c-4 -7 -4 -10 1 -6 4 4 15 2 24 -5 14 -11 14 -10 2 6 -16
20 -18 21 -27 5z"/>
<path d="M4674 9078 c-4 -7 -4 -10 1 -6 4 4 15 2 24 -5 14 -11 14 -10 2 6 -16
20 -18 21 -27 5z"/>
<path d="M5370 9081 c0 -6 4 -13 10 -16 6 -3 7 1 4 9 -7 18 -14 21 -14 7z"/>
<path d="M1588 9073 c6 -2 18 -2 25 0 6 3 1 5 -13 5 -14 0 -19 -2 -12 -5z"/>
<path d="M1908 9073 c7 -3 16 -2 19 1 4 3 -2 6 -13 5 -11 0 -14 -3 -6 -6z"/>
<path d="M3508 9073 c6 -2 18 -2 25 0 6 3 1 5 -13 5 -14 0 -19 -2 -12 -5z"/>
<path d="M9807 8879 c7 -7 15 -10 18 -7 3 3 -2 9 -12 12 -14 6 -15 5 -6 -5z"/>
<path d="M10335 7960 c3 -5 8 -10 11 -10 2 0 4 5 4 10 0 6 -5 10 -11 10 -5 0
-7 -4 -4 -10z"/>
<path d="M10336 7667 c3 -10 9 -15 12 -12 3 3 0 11 -7 18 -10 9 -11 8 -5 -6z"/>
<path d="M10330 7583 c0 -5 5 -15 10 -23 7 -12 9 -10 7 8 -1 19 -17 33 -17 15z"/>
<path d="M10336 7027 c3 -10 9 -15 12 -12 3 3 0 11 -7 18 -10 9 -11 8 -5 -6z"/>
<path d="M10330 6943 c0 -5 5 -15 10 -23 7 -12 9 -10 7 8 -1 19 -17 33 -17 15z"/>
<path d="M10336 6707 c3 -10 9 -15 12 -12 3 3 0 11 -7 18 -10 9 -11 8 -5 -6z"/>
<path d="M10330 6623 c0 -5 5 -15 10 -23 7 -12 9 -10 7 8 -1 19 -17 33 -17 15z"/>
<path d="M10336 6387 c3 -10 9 -15 12 -12 3 3 0 11 -7 18 -10 9 -11 8 -5 -6z"/>
<path d="M10330 6303 c0 -5 5 -15 10 -23 7 -12 9 -10 7 8 -1 19 -17 33 -17 15z"/>
<path d="M10336 6067 c3 -10 9 -15 12 -12 3 3 0 11 -7 18 -10 9 -11 8 -5 -6z"/>
<path d="M10330 5983 c0 -5 5 -15 10 -23 7 -12 9 -10 7 8 -1 19 -17 33 -17 15z"/>
<path d="M10336 5747 c3 -10 9 -15 12 -12 3 3 0 11 -7 18 -10 9 -11 8 -5 -6z"/>
<path d="M10330 5663 c0 -5 5 -15 10 -23 7 -12 9 -10 7 8 -1 19 -17 33 -17 15z"/>
<path d="M10336 5427 c3 -10 9 -15 12 -12 3 3 0 11 -7 18 -10 9 -11 8 -5 -6z"/>
<path d="M10330 5343 c0 -5 5 -15 10 -23 7 -12 9 -10 7 8 -1 19 -17 33 -17 15z"/>
<path d="M10336 5107 c3 -10 9 -15 12 -12 3 3 0 11 -7 18 -10 9 -11 8 -5 -6z"/>
<path d="M10330 5023 c0 -5 5 -15 10 -23 7 -12 9 -10 7 8 -1 19 -17 33 -17 15z"/>
<path d="M10336 4787 c3 -10 9 -15 12 -12 3 3 0 11 -7 18 -10 9 -11 8 -5 -6z"/>
<path d="M10330 4703 c0 -5 5 -15 10 -23 7 -12 9 -10 7 8 -1 19 -17 33 -17 15z"/>
<path d="M10336 4467 c3 -10 9 -15 12 -12 3 3 0 11 -7 18 -10 9 -11 8 -5 -6z"/>
<path d="M10330 4383 c0 -5 5 -15 10 -23 7 -12 9 -10 7 8 -1 19 -17 33 -17 15z"/>
<path d="M10336 4147 c3 -10 9 -15 12 -12 3 3 0 11 -7 18 -10 9 -11 8 -5 -6z"/>
<path d="M10330 4063 c0 -5 5 -15 10 -23 7 -12 9 -10 7 8 -1 19 -17 33 -17 15z"/>
<path d="M10336 3827 c3 -10 9 -15 12 -12 3 3 0 11 -7 18 -10 9 -11 8 -5 -6z"/>
<path d="M10330 3743 c0 -5 5 -15 10 -23 7 -12 9 -10 7 8 -1 19 -17 33 -17 15z"/>
<path d="M10336 3507 c3 -10 9 -15 12 -12 3 3 0 11 -7 18 -10 9 -11 8 -5 -6z"/>
<path d="M10330 3423 c0 -5 5 -15 10 -23 7 -12 9 -10 7 8 -1 19 -17 33 -17 15z"/>
<path d="M10336 3187 c3 -10 9 -15 12 -12 3 3 0 11 -7 18 -10 9 -11 8 -5 -6z"/>
<path d="M10330 3103 c0 -5 5 -15 10 -23 7 -12 9 -10 7 8 -1 19 -17 33 -17 15z"/>
<path d="M10336 2867 c3 -10 9 -15 12 -12 3 3 0 11 -7 18 -10 9 -11 8 -5 -6z"/>
<path d="M10336 2707 c3 -10 9 -15 12 -12 3 3 0 11 -7 18 -10 9 -11 8 -5 -6z"/>
<path d="M10335 2600 c-3 -5 -1 -10 4 -10 6 0 11 5 11 10 0 6 -2 10 -4 10 -3
0 -8 -4 -11 -10z"/>
<path d="M2855 390 c1 -17 5 -33 8 -36 3 -3 5 8 3 25 -1 17 -5 33 -8 36 -3 3
-4 -8 -3 -25z"/>
</g>
</svg>
